<svg width="377" height="377" viewBox="0 0 377 377" fill="none" xmlns="http://www.w3.org/2000/svg">
<circle cx="188.5" cy="188.5" r="188.5" fill="url(#paint0_linear_5_22)"/>
<path d="M307.967 76.2471C310.023 74.2556 313.4 74.7104 314.855 77.1748C315.823 78.8132 315.559 80.899 314.213 82.2442L307.54 88.9131C303.537 92.9141 298.938 96.2698 293.905 98.8594L292 99.8399C285.718 102.232 279.056 103.472 272.334 103.498L264.201 103.529L267.5 106.34L278.505 116.464C279.458 117.341 280 118.577 280 119.872C280 123.725 275.568 125.893 272.526 123.527L271 122.34L265.081 116.422C264.361 115.702 263.588 115.038 262.767 114.436L256.5 109.84L255.73 109.359C253.582 108.017 251.305 106.891 248.934 106.002L248.5 105.84L244.334 104.704C243.448 104.462 242.537 104.322 241.619 104.287L234.41 104.01C233.842 103.988 233.302 103.862 232.807 103.653L193.678 103.808L193.447 134.414L281.801 204.444C283.849 206.067 284.193 209.043 282.57 211.091C280.947 213.139 277.971 213.483 275.923 211.86L265.056 203.247H264.86L249.459 292.137C248.296 298.847 242.474 303.747 235.664 303.747H141.23C134.421 303.747 128.598 298.847 127.436 292.137L112.034 203.247H111.804L112.005 203.084L111.997 203.038L100.533 212.125C98.4854 213.748 95.5098 213.403 93.8867 211.355C92.2637 209.308 92.6077 206.332 94.6553 204.709L183.671 134.154L183.899 103.846L65.6982 104.312C63.1039 104.321 60.9961 102.218 61 99.624C61.004 97.0423 63.0989 94.9512 65.6807 94.9512H233.585C233.907 94.8793 234.243 94.8399 234.587 94.8399H247.541C248.203 94.8399 248.862 94.8774 249.514 94.9512H273.176C277.361 94.9512 281.517 94.2408 285.465 92.8506L288 91.958L289.945 91.249C291.31 90.7516 292.611 90.0933 293.82 89.2891L294.125 89.0869C295.372 88.2575 296.541 87.3156 297.617 86.2735L307.967 76.2471ZM112.365 202.747H112.427L117.424 198.736L112.365 202.747Z" fill="white"/>
<path d="M217 217C217 232.464 204.24 245 188.5 245C172.76 245 160 232.464 160 217C160 201.536 172.76 189 188.5 189C204.24 189 217 201.536 217 217ZM169.267 217C169.267 227.436 177.878 235.896 188.5 235.896C199.122 235.896 207.733 227.436 207.733 217C207.733 206.564 199.122 198.104 188.5 198.104C177.878 198.104 169.267 206.564 169.267 217Z" fill="url(#paint1_linear_5_22)"/>
<path d="M166 280.5C166 278.015 168.015 276 170.5 276H206.5C208.985 276 211 278.015 211 280.5V280.5C211 282.985 208.985 285 206.5 285H170.5C168.015 285 166 282.985 166 280.5V280.5Z" fill="url(#paint2_linear_5_22)"/>
<defs>
<linearGradient id="paint0_linear_5_22" x1="39" y1="213.5" x2="358" y2="207.5" gradientUnits="userSpaceOnUse">
<stop stop-color="#5EEAD4"/>
<stop offset="1" stop-color="#0F766E"/>
</linearGradient>
<linearGradient id="paint1_linear_5_22" x1="268.5" y1="217" x2="147" y2="217" gradientUnits="userSpaceOnUse">
<stop stop-color="#0F766E"/>
<stop offset="1" stop-color="#1CDCCD"/>
</linearGradient>
<linearGradient id="paint2_linear_5_22" x1="242" y1="281" x2="153" y2="281" gradientUnits="userSpaceOnUse">
<stop stop-color="#0F766E"/>
<stop offset="1" stop-color="#1CDCCD"/>
</linearGradient>
</defs>
</svg>
